<svg width="1024" height="1024" viewBox="0 0 1024 1024" fill="none" xmlns="http://www.w3.org/2000/svg">
<g id="jobScrapeFavicon">
<rect id="Rectangle 1" width="1024" height="1024" rx="200" fill="#1C56AC"/>
<path id="JS" d="M299.98 788.61C397.765 788.61 440.815 718.5 440.815 633.015V324.285H349.795V625.635C349.795 688.365 328.885 709.89 288.91 709.89C263.08 709.89 239.095 695.745 221.26 662.535L159.145 708.66C189.28 761.55 233.56 788.61 299.98 788.61ZM686.421 788.61C791.586 788.61 853.701 725.265 853.701 650.85C853.701 585.045 817.416 549.99 762.066 527.235L702.411 502.02C663.666 486.645 631.686 474.96 631.686 442.365C631.686 412.23 656.901 394.395 696.876 394.395C734.391 394.395 764.526 407.925 793.431 431.91L839.556 374.715C802.656 337.2 749.766 316.29 696.876 316.29C604.626 316.29 539.436 373.485 539.436 447.9C539.436 514.32 585.561 551.22 631.686 570.285L692.571 596.115C733.161 613.335 760.836 623.79 760.836 657.615C760.836 689.595 735.621 709.89 688.266 709.89C648.291 709.89 605.241 689.595 572.646 659.46L520.371 722.19C564.651 764.625 625.536 788.61 686.421 788.61Z" fill="white"/>
</g>
</svg>
